<svg width="18" height="20" viewBox="0 0 18 20" fill="none" xmlns="http://www.w3.org/2000/svg">
<path d="M0 17.4375V7.3125C0 6.95625 0.0798748 6.61875 0.239625 6.3C0.399375 5.98125 0.6195 5.71875 0.9 5.5125L7.65 0.45C8.04375 0.15 8.49375 0 9 0C9.50625 0 9.95625 0.15 10.35 0.45L17.1 5.5125C17.3812 5.71875 17.6017 5.98125 17.7615 6.3C17.9212 6.61875 18.0007 6.95625 18 7.3125V17.4375C18 18.0562 17.7795 18.5861 17.3385 19.0271C16.8975 19.4681 16.368 19.6882 15.75 19.6875H12.375C12.0562 19.6875 11.7892 19.5795 11.574 19.3635C11.3587 19.1475 11.2507 18.8805 11.25 18.5625V12.9375C11.25 12.6187 11.142 12.3517 10.926 12.1365C10.71 11.9212 10.443 11.8132 10.125 11.8125H7.875C7.55625 11.8125 7.28925 11.9205 7.074 12.1365C6.85875 12.3525 6.75075 12.6195 6.75 12.9375V18.5625C6.75 18.8812 6.642 19.1486 6.426 19.3646C6.21 19.5806 5.943 19.6882 5.625 19.6875H2.25C1.63125 19.6875 1.10175 19.4674 0.6615 19.0271C0.22125 18.5869 0.00075 18.057 0 17.4375Z" fill="url(#paint0_linear_388_502)"/>
<defs>
<linearGradient id="paint0_linear_388_502" x1="0" y1="9.84375" x2="18" y2="9.84375" gradientUnits="userSpaceOnUse">
<stop stop-color="#A31ABE"/>
<stop offset="1" stop-color="#E250CE"/>
</linearGradient>
</defs>
</svg>
