<svg width="20" height="21" viewBox="0 0 20 21" fill="none" xmlns="http://www.w3.org/2000/svg">
<path d="M8.89605 0.84375C10.5665 0.843638 12.2033 1.3138 13.619 2.20044C15.0347 3.08708 16.1722 4.35436 16.9013 5.85727C17.6304 7.36017 17.9216 9.03797 17.7417 10.6987C17.5617 12.3593 16.9178 13.9358 15.8837 15.2477L19.7062 19.07C19.8968 19.2674 20.0023 19.5318 20 19.8062C19.9976 20.0806 19.8875 20.3431 19.6934 20.5372C19.4994 20.7313 19.2368 20.8413 18.9624 20.8437C18.688 20.8461 18.4236 20.7406 18.2262 20.5499L14.4037 16.7276C13.2894 17.6057 11.9813 18.2046 10.5886 18.4744C9.19575 18.7441 7.75864 18.6769 6.3971 18.2783C5.03557 17.8797 3.7891 17.1613 2.76169 16.1831C1.73427 15.2048 0.955709 13.995 0.490952 12.6547C0.0261946 11.3143 -0.111279 9.88229 0.0899992 8.47801C0.291278 7.07373 0.825473 5.73795 1.64802 4.5821C2.47056 3.42625 3.5576 2.48386 4.81844 1.83355C6.07928 1.18324 7.47736 0.843871 8.89605 0.84375ZM8.89605 2.93704C7.09166 2.93704 5.36118 3.6538 4.08529 4.92964C2.8094 6.20548 2.09261 7.9359 2.09261 9.74022C2.09261 11.5445 2.8094 13.2749 4.08529 14.5508C5.36118 15.8266 7.09166 16.5434 8.89605 16.5434C10.7004 16.5434 12.4309 15.8266 13.7068 14.5508C14.9827 13.2749 15.6995 11.5445 15.6995 9.74022C15.6995 7.9359 14.9827 6.20548 13.7068 4.92964C12.4309 3.6538 10.7004 2.93704 8.89605 2.93704ZM8.89605 3.98368C10.4228 3.98368 11.8871 4.59017 12.9667 5.66973C14.0463 6.74929 14.6528 8.21349 14.6528 9.74022C14.6528 11.2669 14.0463 12.7311 12.9667 13.8107C11.8871 14.8903 10.4228 15.4968 8.89605 15.4968C7.36926 15.4968 5.90501 14.8903 4.82541 13.8107C3.7458 12.7311 3.13929 11.2669 3.13929 9.74022C3.13929 8.21349 3.7458 6.74929 4.82541 5.66973C5.90501 4.59017 7.36926 3.98368 8.89605 3.98368Z" fill="#3D3F40"/>
</svg>
