<svg width="21" height="21" viewBox="0 0 21 21" fill="none" xmlns="http://www.w3.org/2000/svg">
<path d="M10.5939 20.1017L10.5819 20.1037L10.5109 20.1387L10.4909 20.1427L10.4769 20.1387L10.4059 20.1027C10.3953 20.1001 10.3873 20.1021 10.3819 20.1087L10.3779 20.1187L10.3609 20.5467L10.3659 20.5667L10.3759 20.5797L10.4799 20.6537L10.4949 20.6577L10.5069 20.6537L10.6109 20.5797L10.6229 20.5637L10.6269 20.5467L10.6099 20.1197C10.6073 20.1091 10.6019 20.1031 10.5939 20.1017ZM10.8579 19.9888L10.8439 19.9907L10.6599 20.0837L10.6499 20.0937L10.6469 20.1047L10.6649 20.5347L10.6699 20.5467L10.6779 20.5547L10.8789 20.6467C10.8916 20.6501 10.9013 20.6474 10.9079 20.6387L10.9119 20.6247L10.8779 20.0107C10.8746 19.9981 10.8679 19.9908 10.8579 19.9888ZM10.1429 19.9907C10.1385 19.9881 10.1333 19.9872 10.1282 19.9883C10.1232 19.9894 10.1188 19.9925 10.1159 19.9967L10.1099 20.0107L10.0759 20.6247C10.0766 20.6367 10.0823 20.6447 10.0929 20.6487L10.1079 20.6467L10.3089 20.5537L10.3189 20.5457L10.3219 20.5347L10.3399 20.1047L10.3369 20.0927L10.3269 20.0827L10.1429 19.9907Z" fill="#3D3F40"/>
<path d="M16.9999 10.8437C17.187 10.8437 17.3703 10.8962 17.5291 10.9952C17.6878 11.0942 17.8156 11.2357 17.8979 11.4037L17.9459 11.5207L18.0759 11.8987C18.2131 12.3009 18.4342 12.6693 18.7245 12.9796C19.0148 13.2899 19.3677 13.535 19.7599 13.6987L19.9449 13.7687L20.3229 13.8977C20.5101 13.9615 20.6741 14.0795 20.7943 14.2366C20.9145 14.3937 20.9853 14.5829 20.998 14.7803C21.0106 14.9776 20.9644 15.1743 20.8652 15.3455C20.7661 15.5166 20.6184 15.6545 20.4409 15.7417L20.3229 15.7897L19.9449 15.9197C19.5427 16.0569 19.1743 16.2779 18.864 16.5683C18.5536 16.8586 18.3086 17.2115 18.1449 17.6037L18.0749 17.7887L17.9459 18.1667C17.882 18.3538 17.7641 18.5179 17.607 18.6381C17.4499 18.7582 17.2607 18.8291 17.0633 18.8417C16.866 18.8544 16.6693 18.8082 16.4981 18.709C16.327 18.6099 16.1891 18.4622 16.1019 18.2847L16.0539 18.1667L15.9239 17.7887C15.7867 17.3865 15.5656 17.018 15.2753 16.7077C14.985 16.3974 14.6321 16.1523 14.2399 15.9887L14.0549 15.9187L13.6769 15.7897C13.4897 15.7258 13.3257 15.6079 13.2055 15.4508C13.0854 15.2937 13.0145 15.1045 13.0019 14.9071C12.9892 14.7097 13.0354 14.513 13.1346 14.3419C13.2337 14.1708 13.3814 14.0329 13.5589 13.9457L13.6769 13.8977L14.0549 13.7677C14.4571 13.6305 14.8256 13.4094 15.1359 13.1191C15.4462 12.8288 15.6913 12.4759 15.8549 12.0837L15.9249 11.8987L16.0539 11.5207C16.1213 11.3233 16.2487 11.1519 16.4183 11.0305C16.588 10.9091 16.7913 10.8438 16.9999 10.8437ZM19.9999 3.81173V11.3337L19.9679 11.2527L19.8389 10.8737C19.6418 10.297 19.2738 9.79399 18.7837 9.43165C18.2937 9.0693 17.7049 8.8648 17.0958 8.84536C16.4866 8.82593 15.886 8.99248 15.3739 9.32285C14.8617 9.65322 14.4624 10.1317 14.2289 10.6947L14.1609 10.8747L14.0309 11.2527C13.9879 11.3789 13.9201 11.4952 13.8315 11.5948C13.7429 11.6944 13.6353 11.7753 13.5149 11.8327L13.4089 11.8757L13.0299 12.0047C12.5785 12.1589 12.1703 12.4186 11.8393 12.7622C11.5084 13.1058 11.2641 13.5234 11.1268 13.9803C10.9895 14.4372 10.9632 14.9203 11.05 15.3894C11.1368 15.8585 11.3343 16.3001 11.6259 16.6777L11.7639 16.8437H1.99999C1.49542 16.8438 1.00943 16.6533 0.639449 16.3102C0.269469 15.9671 0.0428431 15.4968 0.00500009 14.9937L0 14.8437V3.81173L9.03995 11.3457C9.28925 11.5533 9.59913 11.6745 9.92312 11.6911C10.2471 11.7076 10.5677 11.6187 10.8369 11.4377L10.9599 11.3457L19.9999 3.81173ZM17.9999 0.84375C18.5639 0.84375 19.0729 1.07675 19.4359 1.45175L19.5519 1.58175L9.99995 9.5417L0.447998 1.58175C0.615716 1.37536 0.822912 1.2045 1.05746 1.07915C1.29201 0.953806 1.5492 0.876498 1.81399 0.85175L1.99999 0.84375H17.9999Z" fill="#3D3F40"/>
</svg>
