<svg width="18" height="22" viewBox="0 0 18 22" fill="none" xmlns="http://www.w3.org/2000/svg">
<path fill-rule="evenodd" clip-rule="evenodd" d="M11.4376 0.708333C11.4376 0.636504 11.409 0.567616 11.3583 0.516825C11.3075 0.466034 11.2386 0.4375 11.1667 0.4375H3.58341C2.79329 0.4375 2.03553 0.751376 1.47683 1.31008C0.918124 1.86878 0.604248 2.62654 0.604248 3.41667V18.5833C0.604248 19.3735 0.918124 20.1312 1.47683 20.6899C2.03553 21.2486 2.79329 21.5625 3.58341 21.5625H14.4168C15.2069 21.5625 15.9646 21.2486 16.5233 20.6899C17.082 20.1312 17.3959 19.3735 17.3959 18.5833V7.90925C17.3959 7.83742 17.3674 7.76853 17.3166 7.71774C17.2658 7.66695 17.1969 7.63842 17.1251 7.63842H12.2501C12.0346 7.63842 11.8279 7.55281 11.6756 7.40044C11.5232 7.24807 11.4376 7.04141 11.4376 6.82592V0.708333ZM12.2501 11.2708C12.4656 11.2708 12.6722 11.3564 12.8246 11.5088C12.977 11.6612 13.0626 11.8678 13.0626 12.0833C13.0626 12.2988 12.977 12.5055 12.8246 12.6579C12.6722 12.8102 12.4656 12.8958 12.2501 12.8958H5.75008C5.53459 12.8958 5.32793 12.8102 5.17556 12.6579C5.02318 12.5055 4.93758 12.2988 4.93758 12.0833C4.93758 11.8678 5.02318 11.6612 5.17556 11.5088C5.32793 11.3564 5.53459 11.2708 5.75008 11.2708H12.2501ZM12.2501 15.6042C12.4656 15.6042 12.6722 15.6898 12.8246 15.8421C12.977 15.9945 13.0626 16.2012 13.0626 16.4167C13.0626 16.6322 12.977 16.8388 12.8246 16.9912C12.6722 17.1436 12.4656 17.2292 12.2501 17.2292H5.75008C5.53459 17.2292 5.32793 17.1436 5.17556 16.9912C5.02318 16.8388 4.93758 16.6322 4.93758 16.4167C4.93758 16.2012 5.02318 15.9945 5.17556 15.8421C5.32793 15.6898 5.53459 15.6042 5.75008 15.6042H12.2501Z" fill="#3D3F40"/>
<path d="M13.0625 1.05933C13.0625 0.859994 13.2716 0.733244 13.4265 0.857827C13.5579 0.963994 13.6746 1.08749 13.7764 1.22833L17.0405 5.77508C17.1142 5.87908 17.034 6.01341 16.9062 6.01341H13.3333C13.2615 6.01341 13.1926 5.98488 13.1418 5.93408C13.091 5.88329 13.0625 5.81441 13.0625 5.74258V1.05933Z" fill="#3D3F40"/>
</svg>
