<svg width="21" height="22" viewBox="0 0 21 22" fill="none" xmlns="http://www.w3.org/2000/svg">
<path d="M11.4843 1.82812V3.46875H12.7771C13.1761 3.46875 13.5685 3.57375 13.915 3.77194L15.6081 4.73794C15.6589 4.76681 15.7131 4.78125 15.7709 4.78125H18.703C18.9641 4.78125 19.2145 4.88496 19.3991 5.06957C19.5837 5.25417 19.6874 5.50455 19.6874 5.76562C19.6874 6.0267 19.5837 6.27708 19.3991 6.46168C19.2145 6.64629 18.9641 6.75 18.703 6.75H18.1426L20.9133 12.9083C20.9951 13.0904 21.0196 13.2932 20.9835 13.4897C20.9474 13.6861 20.8524 13.8669 20.7111 14.0081L20.0155 13.3125L20.7098 14.0094L20.7085 14.0121L20.7059 14.0147L20.698 14.0226L20.6901 14.0291L20.677 14.0422L20.6179 14.0947C20.3406 14.3266 20.0404 14.5235 19.7176 14.6854C19.1046 14.9925 18.2174 15.2812 17.0624 15.2812C16.143 15.292 15.2338 15.088 14.4072 14.6854C14.085 14.5245 13.7827 14.3262 13.5068 14.0947L13.4478 14.0422L13.4268 14.0226L13.4189 14.0147L13.4136 14.0094V14.0081C13.2723 13.8669 13.1773 13.6861 13.1412 13.4897C13.1051 13.2932 13.1296 13.0904 13.2115 12.9083L15.9835 6.75H15.7709C15.3706 6.75 14.9781 6.64631 14.6316 6.44681L12.9385 5.48081C12.8889 5.45246 12.8328 5.43753 12.7758 5.4375H11.4843V17.9062H14.7655C15.0266 17.9062 15.277 18.01 15.4616 18.1946C15.6462 18.3792 15.7499 18.6296 15.7499 18.8906C15.7499 19.1517 15.6462 19.4021 15.4616 19.5867C15.277 19.7713 15.0266 19.875 14.7655 19.875H6.23425C5.97318 19.875 5.7228 19.7713 5.53819 19.5867C5.35359 19.4021 5.24988 19.1517 5.24988 18.8906C5.24988 18.6296 5.35359 18.3792 5.53819 18.1946C5.7228 18.01 5.97318 17.9062 6.23425 17.9062H9.5155V5.4375H8.224C8.16691 5.43753 8.11081 5.45246 8.06125 5.48081L6.36944 6.44812C6.02163 6.645 5.62919 6.75 5.22888 6.75H5.01625L7.78825 12.9083C7.87013 13.0904 7.89464 13.2932 7.85854 13.4897C7.82244 13.6861 7.72743 13.8669 7.58613 14.0081L6.8905 13.3125L7.58482 14.0094L7.5835 14.0121L7.58088 14.0147L7.573 14.0226L7.552 14.0422L7.49294 14.0947C7.21557 14.3266 6.91544 14.5235 6.59257 14.6854C5.97963 14.9925 5.09238 15.2812 3.93738 15.2812C3.018 15.292 2.10881 15.088 1.28219 14.6854C0.959949 14.5245 0.657748 14.3262 0.381815 14.0947L0.322752 14.0422L0.301752 14.0226L0.293877 14.0147L0.288627 14.0094V14.0081C0.147326 13.8669 0.0523153 13.6861 0.0162132 13.4897C-0.0198889 13.2932 0.0046261 13.0904 0.0865024 12.9083L2.8585 6.75H2.29675C2.03568 6.75 1.7853 6.64629 1.60069 6.46168C1.41609 6.27708 1.31238 6.0267 1.31238 5.76562C1.31238 5.50455 1.41609 5.25417 1.60069 5.06957C1.7853 4.88496 2.03568 4.78125 2.29675 4.78125H5.22888C5.28642 4.78145 5.343 4.76651 5.39294 4.73794L7.08344 3.77063C7.43125 3.57375 7.82369 3.46875 8.224 3.46875H9.5155V1.82812C9.5155 1.56705 9.61921 1.31667 9.80382 1.13207C9.98843 0.947461 10.2388 0.84375 10.4999 0.84375C10.761 0.84375 11.0113 0.947461 11.1959 1.13207C11.3805 1.31667 11.4843 1.56705 11.4843 1.82812ZM15.3496 12.9542C15.7236 13.1314 16.2919 13.3125 17.0624 13.3125C17.8328 13.3125 18.4011 13.1314 18.7752 12.9542L17.0624 9.14794L15.3496 12.9542ZM2.22457 12.9542C2.59863 13.1314 3.16694 13.3125 3.93738 13.3125C4.70782 13.3125 5.27613 13.1314 5.65019 12.9542L3.93738 9.14794L2.22457 12.9542Z" fill="url(#paint0_linear_388_499)"/>
<defs>
<linearGradient id="paint0_linear_388_499" x1="0" y1="10.3594" x2="20.9998" y2="10.3594" gradientUnits="userSpaceOnUse">
<stop stop-color="#A31ABE"/>
<stop offset="1" stop-color="#E250CE"/>
</linearGradient>
</defs>
</svg>
